<svg xmlns="http://www.w3.org/2000/svg" viewBox="0 0 1920 220" preserveAspectRatio="none">
  <rect width="1920" height="220" fill="#05070d" />
  <g fill="#10172a" opacity="0.86">
    <circle cx="80" cy="150" r="40" />
    <circle cx="180" cy="142" r="48" />
    <circle cx="300" cy="148" r="42" />
    <circle cx="420" cy="140" r="50" />
    <circle cx="540" cy="150" r="44" />
    <circle cx="670" cy="138" r="52" />
    <circle cx="800" cy="146" r="45" />
    <circle cx="930" cy="139" r="48" />
    <circle cx="1060" cy="147" r="44" />
    <circle cx="1190" cy="138" r="51" />
    <circle cx="1320" cy="147" r="43" />
    <circle cx="1450" cy="140" r="50" />
    <circle cx="1580" cy="149" r="42" />
    <circle cx="1710" cy="140" r="51" />
    <circle cx="1840" cy="149" r="42" />
  </g>
  <g fill="#17233d" opacity="0.82">
    <rect x="38" y="150" width="84" height="70" rx="18" />
    <rect x="154" y="144" width="88" height="76" rx="20" />
    <rect x="272" y="152" width="82" height="68" rx="18" />
    <rect x="392" y="142" width="94" height="78" rx="20" />
    <rect x="516" y="152" width="82" height="68" rx="18" />
    <rect x="642" y="142" width="94" height="78" rx="20" />
    <rect x="772" y="150" width="84" height="70" rx="18" />
    <rect x="896" y="142" width="94" height="78" rx="20" />
    <rect x="1022" y="152" width="82" height="68" rx="18" />
    <rect x="1148" y="142" width="94" height="78" rx="20" />
    <rect x="1278" y="150" width="84" height="70" rx="18" />
    <rect x="1404" y="142" width="94" height="78" rx="20" />
    <rect x="1532" y="151" width="82" height="69" rx="18" />
    <rect x="1658" y="142" width="94" height="78" rx="20" />
    <rect x="1788" y="151" width="82" height="69" rx="18" />
  </g>
</svg>
